<svg width="38" height="38" fill="none" xmlns="http://www.w3.org/2000/svg"><path d="M25.53 14.056l-4.824 4.757 4.824 4.756a1.344 1.344 0 010 1.962 1.345 1.345 0 01-1.895 0l-4.824-4.824-4.757 4.824a1.344 1.344 0 01-1.894 0 1.344 1.344 0 010-1.894l4.756-4.825-4.756-4.756a1.343 1.343 0 011.894-1.895l4.757 4.757 4.757-4.757a1.364 1.364 0 011.962 1.895zm6.584 18.06A18.813 18.813 0 115.51 5.508a18.813 18.813 0 0126.604 26.608zM30.22 7.404A16.125 16.125 0 107.455 30.25 16.125 16.125 0 0030.22 7.404z" fill="#fff"/></svg>