<svg width="240" height="22" fill="none" xmlns="http://www.w3.org/2000/svg"><path fill-rule="evenodd" clip-rule="evenodd" d="M0 9.801v2.924l10.71 5.245v-3.574l-7.314-3.133 7.315-3.156V4.51L0 9.8zM11.939 22h3.397L22.98 0h-3.374L11.94 22zm22.98-12.199L24.208 4.509v3.597l7.314 3.156-7.314 3.133v3.575l10.71-5.245V9.801zm7.574 1.578c0 4.827 3.893 8.447 9.06 8.447 5.166 0 9.036-3.434 9.036-8.447 0-5.082-3.87-8.493-9.036-8.493-5.19-.002-9.06 3.595-9.06 8.493zm3.304 0c0-3.202 2.383-5.384 5.756-5.384 3.422 0 5.733 2.182 5.733 5.384 0 3.133-2.312 5.338-5.733 5.338-3.35 0-5.756-2.205-5.756-5.338zm16.846-2.135h2.76l1.18-6.034H63.14l-.496 6.034zM73.52 19.478h3.304V6.228h5.803V3.231H67.668v2.994h5.851v13.252zm10.123-8.099c0 4.827 3.893 8.447 9.06 8.447 5.166 0 9.036-3.434 9.036-8.447 0-5.082-3.87-8.493-9.036-8.493-5.19-.002-9.06 3.595-9.06 8.493zm3.303 0c0-3.202 2.383-5.384 5.757-5.384 3.421 0 5.733 2.182 5.733 5.384 0 3.133-2.312 5.338-5.733 5.338-3.35 0-5.757-2.205-5.757-5.338zm20.386-2.738l10.238 10.837h2.666V3.232h-3.303V14L106.67 3.232h-2.642v16.246h3.303V8.641zm21.589 4.571v6.267h3.303v-6.267l7.597-9.98h-4.154l-5.096 6.684-5.096-6.684h-4.152l7.598 9.98zm32.349 1.741c0-7.519-11.679-3.76-11.679-7.356 0-1.16 1.51-2.02 3.822-2.02 2.124 0 3.87 1.022 4.153 2.275h3.421c-.259-2.947-3.28-4.966-7.574-4.966-4.059 0-7.125 1.763-7.125 4.618 0 7.427 11.679 3.481 11.679 7.356 0 1.253-1.581 2.181-3.823 2.181-2.406 0-4.271-.997-4.625-2.553h-3.445c.236 3.203 3.68 5.339 8.116 5.339 4.413 0 7.079-2.182 7.079-4.874h.001zm7.007 4.526h3.304V6.227h5.804V3.232h-14.959v2.994h5.851v13.253zm18.805-2.832c-2.524 0-4.388-2.018-4.388-4.78V3.232h-3.304v8.633c0 4.48 3.209 7.891 7.692 7.891 4.578 0 7.692-3.411 7.692-7.89V3.231h-3.303v8.633c-.001 2.833-1.818 4.782-4.39 4.782h.001zm10.665 2.832h7.81c4.365 0 8.541-3.504 8.541-8.146 0-4.804-3.94-8.099-8.541-8.099h-7.81V19.48v-.001zm13.048-8.146c0 2.947-2.242 5.036-5.238 5.036h-4.507V6.343h4.507c3.019 0 5.237 2.043 5.237 4.99h.001zm8.848-8.099h-3.303V19.48h3.303V3.234zm2.265 8.146c0 4.827 3.893 8.447 9.06 8.447 5.167 0 9.033-3.435 9.033-8.447 0-5.083-3.87-8.494-9.033-8.494-5.192-.002-9.061 3.595-9.061 8.493h.001zm3.303 0c0-3.203 2.383-5.384 5.757-5.384 3.421 0 5.73 2.181 5.73 5.384 0 3.133-2.309 5.338-5.73 5.338-3.351-.001-5.758-2.206-5.758-5.339h.001z" fill="#171717"/></svg>