<svg width="345" height="32" fill="none" xmlns="http://www.w3.org/2000/svg"><path fill-rule="evenodd" clip-rule="evenodd" d="M.93 14.256v4.254l15.352 7.628V20.94L5.798 16.383l10.484-4.591V6.559L.93 14.256zM18.042 32h4.87L33.867 0h-4.836l-10.99 32zM50.98 14.256L35.627 6.558v5.233l10.484 4.59-10.484 4.558v5.2l15.352-7.63v-4.253zm10.857 2.296c0 7.021 5.58 12.287 12.985 12.287 7.405 0 12.951-4.996 12.951-12.287 0-7.393-5.546-12.355-12.95-12.355-7.44-.002-12.986 5.23-12.986 12.355zm4.734 0c0-4.658 3.416-7.832 8.252-7.832 4.903 0 8.217 3.174 8.217 7.832 0 4.557-3.314 7.764-8.217 7.764-4.802 0-8.252-3.207-8.252-7.764zm24.147-3.106h3.957l1.691-8.777H91.43l-.71 8.777zm15.59 14.887h4.734V9.058h8.318V4.702H97.921v4.354h8.387v19.277zm14.508-11.781c0 7.021 5.581 12.287 12.986 12.287s12.951-4.996 12.951-12.287c0-7.393-5.545-12.355-12.951-12.355-7.44-.002-12.986 5.23-12.986 12.355zm4.735 0c0-4.658 3.416-7.832 8.251-7.832 4.904 0 8.217 3.174 8.217 7.832 0 4.557-3.314 7.764-8.217 7.764-4.802 0-8.252-3.207-8.252-7.764h.001zm29.22-3.983l14.675 15.764h3.821V4.702h-4.735v15.662L153.823 4.702h-3.787v23.63h4.735V12.57zm30.944 6.65v9.114h4.734v-9.115L201.338 4.7h-5.953l-7.304 9.722-7.305-9.721h-5.951l10.89 14.516zm46.366 2.531c0-10.937-16.74-5.468-16.74-10.7 0-1.688 2.165-2.937 5.479-2.937 3.044 0 5.547 1.485 5.952 3.308h4.904c-.372-4.287-4.7-7.224-10.856-7.224-5.817 0-10.213 2.566-10.213 6.718 0 10.803 16.74 5.064 16.74 10.7 0 1.823-2.266 3.173-5.479 3.173-3.449 0-6.121-1.451-6.629-3.714H210.3c.339 4.659 5.276 7.765 11.634 7.765 6.324 0 10.146-3.173 10.146-7.09l.001.001zm10.045 6.583h4.734V9.058h8.32V4.702h-21.441v4.354h8.387v19.277zm26.953-4.118c-3.618 0-6.29-2.937-6.29-6.953V4.702h-4.735v12.557c0 6.514 4.6 11.478 11.025 11.478 6.561 0 11.025-4.962 11.025-11.478V4.702h-4.734v12.557c-.002 4.12-2.606 6.955-6.292 6.955h.001zm15.287 4.118h11.194c6.256 0 12.242-5.097 12.242-11.848 0-6.987-5.648-11.78-12.242-11.78h-11.194v23.63-.002zm18.701-11.848c0 4.287-3.212 7.325-7.507 7.325h-6.46V9.227h6.46c4.327 0 7.506 2.97 7.506 7.257l.001.001zm12.682-11.78h-4.734v23.63h4.734V4.705zm3.247 11.847c0 7.022 5.58 12.288 12.986 12.288 7.407 0 12.947-4.996 12.947-12.288 0-7.392-5.546-12.354-12.947-12.354-7.441-.003-12.988 5.23-12.988 12.354h.002zm4.735 0c0-4.658 3.415-7.83 8.251-7.83 4.904 0 8.213 3.173 8.213 7.83 0 4.558-3.309 7.765-8.213 7.765-4.804-.002-8.253-3.208-8.253-7.765h.002z" fill="#fff"/></svg>