<svg width="40" height="41" fill="none" xmlns="http://www.w3.org/2000/svg"><path d="M20.036 40.464C31.062 40.464 40 31.526 40 20.5 40 9.474 31.062.536 20.036.536 9.01.536.072 9.474.072 20.5c0 11.026 8.938 19.964 19.964 19.964z" fill="#039BE6"/><path d="M9.207 20.067l19.249-7.421c.893-.323 1.673.218 1.384 1.569l.002-.002-3.278 15.44c-.243 1.095-.893 1.361-1.803.846L19.77 26.82l-2.407 2.32c-.267.266-.491.49-1.007.49l.354-5.079 9.25-8.356c.403-.355-.09-.554-.62-.202L13.909 23.19 8.98 21.653c-1.07-.34-1.093-1.07.226-1.585z" fill="#fff"/></svg>