<svg width="43" height="43" fill="none" xmlns="http://www.w3.org/2000/svg"><circle cx="21.341" cy="21.5" r="21.341" fill="#fff"/><path fill-rule="evenodd" clip-rule="evenodd" d="M26.56 25.183c-.22.617-1.277 1.18-1.785 1.256-.455.068-1.03.096-1.665-.104a15.417 15.417 0 01-1.505-.557c-2.652-1.145-4.384-3.814-4.517-3.99-.132-.176-1.079-1.432-1.079-2.733 0-1.3.683-1.94.926-2.204a.97.97 0 01.704-.331 9.1 9.1 0 01.507.01c.163.007.38-.062.595.453.22.53.748 1.83.815 1.962.065.132.11.286.021.462-.088.176-.132.287-.264.442-.132.153-.277.344-.396.463-.132.13-.27.274-.116.538.155.265.684 1.13 1.47 1.83 1.01.9 1.862 1.18 2.126 1.313.264.132.419.11.572-.067.155-.176.662-.77.838-1.036.176-.264.352-.22.595-.132.241.088 1.541.727 1.806.86.264.132.44.198.506.308.066.111.066.64-.154 1.257zm-5.171-12.567c-4.85 0-8.795 3.942-8.797 8.788 0 1.66.464 3.279 1.345 4.678l.21.332-.89 3.243 3.329-.872.32.19A8.766 8.766 0 0021.38 30.2h.004c4.845 0 8.79-3.942 8.792-8.79a8.737 8.737 0 00-2.573-6.217 8.733 8.733 0 00-6.215-2.577z" fill="#67D449"/><path fill-rule="evenodd" clip-rule="evenodd" d="M21.385 31.986h-.004c-1.772 0-3.51-.444-5.055-1.287l-5.609 1.471 1.502-5.48a10.547 10.547 0 01-1.413-5.288c.003-5.83 4.747-10.573 10.579-10.573a10.504 10.504 0 017.482 3.101 10.507 10.507 0 013.096 7.482c-.003 5.83-4.748 10.574-10.578 10.574zM21.34.159C9.554.16 0 9.713 0 21.5s9.554 21.34 21.34 21.34 21.341-9.555 21.341-21.34c0-11.787-9.555-21.34-21.34-21.34z" fill="#67D449"/></svg>